REM DIRINDEX 1\2,1\3,1\4,1\5,1\6
REM DIRNAME folder01,folder02,folder03,folder04,folder05,folder06
TITLE ""
FILE "DISC2Track04.mp3" MP3
  TRACK 01 AUDIO
    TITLE "0:"
    INDEX 01 00:00:00
  TRACK 02 AUDIO
    TITLE "3:cjc129_1025"
    INDEX 01 00:00:05
  TRACK 03 AUDIO
    TITLE "0:"
    INDEX 01 00:03:29
  TRACK 04 AUDIO
    TITLE "5:cjc129_1026"
    INDEX 01 00:03:59
  TRACK 05 AUDIO
    TITLE "0:"
    INDEX 01 00:06:10
  TRACK 06 AUDIO
    TITLE "4:cjc129_1027"
    INDEX 01 00:07:02
  TRACK 07 AUDIO
    TITLE "0:"
    INDEX 01 00:10:25
  TRACK 08 AUDIO
    TITLE "6:cjc129_1028"
    INDEX 01 00:10:55
  TRACK 09 AUDIO
    TITLE "0:"
    INDEX 01 00:14:68
  TRACK 10 AUDIO
    TITLE "3:cjc129_1029"
    INDEX 01 00:16:42
  TRACK 11 AUDIO
    TITLE "0:"
    INDEX 01 00:20:30
  TRACK 12 AUDIO
    TITLE "5:cjc129_1030"
    INDEX 01 00:20:61
  TRACK 13 AUDIO
    TITLE "0:"
    INDEX 01 00:22:48
  TRACK 14 AUDIO
    TITLE "4:cjc129_1031"
    INDEX 01 00:23:36
  TRACK 15 AUDIO
    TITLE "0:"
    INDEX 01 00:27:24
  TRACK 16 AUDIO
    TITLE "6:cjc129_1032"
    INDEX 01 00:27:57
  TRACK 17 AUDIO
    TITLE "0:"
    INDEX 01 00:33:30
  TRACK 18 AUDIO
    TITLE "3:cjc129_1033"
    INDEX 01 00:35:00
  TRACK 19 AUDIO
    TITLE "0:"
    INDEX 01 00:38:33
  TRACK 20 AUDIO
    TITLE "5:cjc129_1034"
    INDEX 01 00:38:69
  TRACK 21 AUDIO
    TITLE "0:"
    INDEX 01 00:40:50
  TRACK 22 AUDIO
    TITLE "4:cjc129_1035"
    INDEX 01 00:41:40
  TRACK 23 AUDIO
    TITLE "0:"
    INDEX 01 00:44:73
  TRACK 24 AUDIO
    TITLE "6:cjc129_1036"
    INDEX 01 00:45:35
  TRACK 25 AUDIO
    TITLE "0:"
    INDEX 01 00:49:72
  TRACK 26 AUDIO
    TITLE "3:cjc129_1037"
    INDEX 01 00:51:48
  TRACK 27 AUDIO
    TITLE "0:"
    INDEX 01 00:53:06
  TRACK 28 AUDIO
    TITLE "5:cjc129_1038"
    INDEX 01 00:53:41
  TRACK 29 AUDIO
    TITLE "0:"
    INDEX 01 00:57:46
  TRACK 30 AUDIO
    TITLE "4:cjc129_1039"
    INDEX 01 00:58:36
  TRACK 31 AUDIO
    TITLE "0:"
    INDEX 01 00:59:71
  TRACK 32 AUDIO
    TITLE "6:cjc129_1040"
    INDEX 01 01:00:29
  TRACK 33 AUDIO
    TITLE "0:"
    INDEX 01 01:04:66
  TRACK 34 AUDIO
    TITLE "3:cjc129_1041"
    INDEX 01 01:06:42
  TRACK 35 AUDIO
    TITLE "0:"
    INDEX 01 01:07:64
  TRACK 36 AUDIO
    TITLE "5:cjc129_1042"
    INDEX 01 01:08:21
  TRACK 37 AUDIO
    TITLE "0:"
    INDEX 01 01:10:14
  TRACK 38 AUDIO
    TITLE "4:cjc129_1043"
    INDEX 01 01:11:05
  TRACK 39 AUDIO
    TITLE "0:"
    INDEX 01 01:12:28
  TRACK 40 AUDIO
    TITLE "6:cjc129_1044"
    INDEX 01 01:12:60
  TRACK 41 AUDIO
    TITLE "0:"
    INDEX 01 01:17:41
  TRACK 42 AUDIO
    TITLE "3:cjc129_1045"
    INDEX 01 01:19:15
  TRACK 43 AUDIO
    TITLE "0:"
    INDEX 01 01:20:42
  TRACK 44 AUDIO
    TITLE "5:cjc129_1046"
    INDEX 01 01:21:00
  TRACK 45 AUDIO
    TITLE "0:"
    INDEX 01 01:23:18
  TRACK 46 AUDIO
    TITLE "4:cjc129_1047"
    INDEX 01 01:24:08
  TRACK 47 AUDIO
    TITLE "0:"
    INDEX 01 01:25:35
  TRACK 48 AUDIO
    TITLE "6:cjc129_1048"
    INDEX 01 01:25:66
  TRACK 49 AUDIO
    TITLE "0:"
    INDEX 01 01:30:18
  TRACK 50 AUDIO
    TITLE "3:cjc129_1049"
    INDEX 01 01:31:67
  TRACK 51 AUDIO
    TITLE "0:"
    INDEX 01 01:33:27
  TRACK 52 AUDIO
    TITLE "5:cjc129_1050"
    INDEX 01 01:33:60
  TRACK 53 AUDIO
    TITLE "0:"
    INDEX 01 01:38:04
  TRACK 54 AUDIO
    TITLE "4:cjc129_1051"
    INDEX 01 01:38:69
  TRACK 55 AUDIO
    TITLE "0:"
    INDEX 01 01:40:29
  TRACK 56 AUDIO
    TITLE "6:cjc129_1052"
    INDEX 01 01:40:60
  TRACK 57 AUDIO
    TITLE "0:"
    INDEX 01 01:45:73
  TRACK 58 AUDIO
    TITLE "3:cjc129_1053"
    INDEX 01 01:47:52
  TRACK 59 AUDIO
    TITLE "0:"
    INDEX 01 01:49:08
  TRACK 60 AUDIO
    TITLE "5:cjc129_1054"
    INDEX 01 01:49:41
  TRACK 61 AUDIO
    TITLE "0:"
    INDEX 01 01:53:08
  TRACK 62 AUDIO
    TITLE "4:cjc129_1055"
    INDEX 01 01:53:74
  TRACK 63 AUDIO
    TITLE "0:"
    INDEX 01 01:55:34
  TRACK 64 AUDIO
    TITLE "6:cjc129_1056"
    INDEX 01 01:55:63
  TRACK 65 AUDIO
    TITLE "0:"
    INDEX 01 02:00:16
